# xmcd
#
# Track frame offsets: 
#        150
#        11778
#        22950
#        34123
#        47973
#        59388
#        72093
#        83950
#        97615
#        121268
#        135225
#        148668
#        165493
#        178828
#        189483
#        201288
#        212115
#        223625
#        236665
#        250835
#        264358
#        277618
#        288620
#        300923
#        314735
#
# Disc length: 4373 seconds
#
# Revision: 1
# Processed by: cddbd v1.5.2PL0 Copyright (c) Steve Scherf et al.
# Submitted via: ExactAudioCopy v0.95b2
#
DISCID=64111319
DTITLE=Jimmy Liggins - Rough Weather Blues, Vol. 2
DYEAR=1992
DGENRE=R&B
TTITLE0=Bye Bye Baby Good-Bye
TTITLE1=Lookin' For My Baby
TTITLE2=Rough Weather Blues
TTITLE3=Misery Blues
TTITLE4=Give Up Little Girl
TTITLE5=Lonely Nights Blues
TTITLE6=Saturday Night Boogie Woogie Man (alt - test take)
TTITLE7=Lover's Prayer
TTITLE8=Now's The Time
TTITLE9=Sincere Lover's Blues
TTITLE10=Down And Out Blues
TTITLE11=Unidentified Instrumental
TTITLE12=Blues For Love
TTITLE13=Brown Skin Baby
TTITLE14=Stolen Love
TTITLE15=Jumpin' And Stompin'
TTITLE16=Low Down Blues
TTITLE17=Cloudy Day Blues
TTITLE18=Goin' Down With The Sun
TTITLE19=Dark Hour Blues
TTITLE20=Pleadin My Cause
TTITLE21=I'll Never Let You Go
TTITLE22=Railroad Blues
TTITLE23=Drunk (alt - undubbed)
TTITLE24=I'll Always Love You
EXTD=
EXTT0=
EXTT1=
EXTT2=
EXTT3=
EXTT4=
EXTT5=
EXTT6=
EXTT7=
EXTT8=
EXTT9=
EXTT10=
EXTT11=
EXTT12=
EXTT13=
EXTT14=
EXTT15=
EXTT16=
EXTT17=
EXTT18=
EXTT19=
EXTT20=
EXTT21=
EXTT22=
EXTT23=
EXTT24=
PLAYORDER=
